<?xml version="1.0" standalone="no"?>
<!DOCTYPE svg PUBLIC "-//W3C//DTD SVG 20010904//EN"
 "http://www.w3.org/TR/2001/REC-SVG-20010904/DTD/svg10.dtd">
<svg version="1.0" xmlns="http://www.w3.org/2000/svg"
 width="678.000000pt" height="410.000000pt" viewBox="0 0 678.000000 410.000000"
 preserveAspectRatio="xMidYMid meet">

<g transform="translate(0.000000,410.000000) scale(0.100000,-0.100000)"
fill="#ff0000ff" stroke="none">
<path d="M265 3841 c-2 -4 53 -67 122 -141 69 -74 148 -162 177 -194 l51 -59
438 7 438 7 122 -123 c67 -68 162 -165 212 -216 l89 -92 -3 -503 c-1 -277 0
-519 4 -539 6 -30 25 -52 112 -130 58 -51 108 -94 112 -96 3 -1 5 168 3 375
-2 268 -7 379 -15 382 -6 2 -21 14 -34 27 -49 49 -14 153 56 169 46 10 97 -17
120 -64 30 -57 26 -77 -19 -119 l-39 -37 -6 -396 -6 -396 123 -110 c122 -109
203 -182 262 -235 17 -16 34 -28 38 -28 5 0 8 365 8 810 -1 446 2 815 6 821 4
7 111 10 327 8 l321 -3 373 435 c205 239 372 436 373 439 0 8 -3760 8 -3765 1z"/>
<path d="M4423 3839 c-13 -5 -23 -12 -23 -16 0 -8 -15 -25 -132 -150 l-68 -72
0 -468 0 -469 63 -62 c34 -34 65 -62 68 -62 5 0 95 96 648 690 85 91 208 223
274 293 66 71 158 170 203 220 l83 92 -107 7 c-154 9 -983 7 -1009 -3z"/>
<path d="M5700 3841 c-9 -3 -38 -30 -65 -60 -28 -30 -88 -93 -135 -140 -106
-108 -316 -333 -353 -380 -15 -19 -82 -91 -148 -159 -66 -68 -117 -127 -114
-131 4 -3 132 -6 286 -7 l279 -1 153 176 c83 97 170 196 193 221 127 141 414
473 414 478 0 9 -490 11 -510 3z"/>
<path d="M4101 3504 c-11 -14 -84 -94 -163 -177 -172 -181 -164 -173 -309
-328 -64 -68 -136 -145 -160 -170 -24 -25 -116 -122 -204 -215 -88 -93 -179
-189 -202 -213 -24 -24 -43 -44 -43 -45 0 -2 1153 4 1154 6 1 2 28 32 59 67
l58 63 -80 83 -81 83 0 188 0 189 -77 -78 c-42 -43 -89 -87 -104 -98 -25 -17
-27 -23 -18 -52 21 -72 -44 -139 -120 -122 -55 12 -89 75 -71 131 15 45 45 64
100 64 46 0 48 1 168 123 l122 122 0 203 c0 111 -2 202 -4 202 -3 0 -14 -12
-25 -26z"/>
<path d="M680 3391 c0 -9 110 -132 263 -293 l129 -138 305 0 c167 0 309 -2
314 -5 5 -4 9 -169 9 -403 l0 -397 74 -67 c41 -38 77 -68 81 -68 3 0 4 223 1
496 l-5 497 -178 181 c-98 99 -182 184 -188 187 -13 9 -805 19 -805 10z"/>
<path d="M2140 2631 c-21 -41 21 -81 58 -55 38 26 22 74 -25 74 -12 0 -27 -9
-33 -19z"/>
<path d="M2969 2258 c0 -2 -1 -100 -2 -218 l-1 -215 417 -3 418 -2 38 40 c40
43 79 52 124 29 74 -38 75 -154 2 -187 -50 -23 -85 -15 -125 27 l-37 39 -402
-1 c-220 -1 -401 -3 -401 -5 0 -2 15 -21 33 -42 l32 -40 257 0 256 0 108 -110
107 -110 135 0 135 0 37 40 c32 34 43 40 78 40 85 0 136 -88 92 -158 -38 -60
-119 -66 -170 -12 l-27 29 -152 3 -153 3 -103 107 -102 106 -209 -2 c-115 -2
-209 -5 -209 -8 0 -7 32 -41 271 -293 94 -99 187 -197 206 -219 l35 -39 339 2
339 2 22 28 c63 80 172 51 197 -53 7 -29 -11 -69 -43 -93 -44 -32 -122 -18
-155 28 l-16 24 -305 0 c-168 0 -305 -2 -305 -5 0 -3 43 -50 94 -105 l93 -99
517 -1 518 0 166 -173 167 -173 463 1 463 0 -15 21 c-14 21 -540 592 -599 650
l-29 30 -416 -1 -415 -1 -22 23 c-12 13 -53 57 -91 98 -38 42 -121 132 -185
200 -226 244 -544 592 -547 599 -1 4 36 48 83 98 47 50 85 94 85 97 0 6 -1089
9 -1091 4z m2530 -1404 c57 -48 47 -135 -19 -169 -37 -19 -63 -19 -100 0 -37
19 -50 43 -50 95 0 89 100 133 169 74z"/>
<path d="M5402 808 c-28 -28 -7 -78 33 -78 42 0 59 44 29 74 -18 19 -45 21
-62 4z"/>
<path d="M1700 1544 l0 -479 457 -400 c251 -220 461 -402 465 -403 4 -2 8 201
8 451 l0 455 -67 65 c-38 35 -97 91 -133 123 -35 33 -123 113 -195 179 -71 66
-204 188 -295 270 -91 82 -167 152 -170 155 -3 3 -20 18 -38 34 l-32 30 0
-480z"/>
<path d="M3886 1824 c-9 -8 -16 -22 -16 -29 0 -18 27 -45 45 -45 18 0 45 27
45 45 0 18 -27 45 -45 45 -7 0 -21 -7 -29 -16z"/>
<path d="M4151 1466 c-15 -17 -4 -63 16 -70 23 -9 53 12 53 37 0 42 -44 63
-69 33z"/>
<path d="M4420 1051 c-14 -26 -13 -46 3 -59 20 -17 56 -3 63 24 12 46 -44 75
-66 35z"/>
<path d="M3990 714 c0 -3 98 -108 217 -235 l218 -229 977 0 c538 0 978 3 978
8 -1 4 -26 34 -56 67 l-56 60 -502 -3 -502 -3 -167 170 -167 171 -470 0 c-258
0 -470 -3 -470 -6z"/>
</g>
</svg>
